<?xml version="1.0" standalone="no"?>
<!DOCTYPE svg PUBLIC "-//W3C//DTD SVG 20010904//EN"
 "http://www.w3.org/TR/2001/REC-SVG-20010904/DTD/svg10.dtd">
<svg version="1.0" xmlns="http://www.w3.org/2000/svg"
 width="337.000000pt" height="337.000000pt" viewBox="0 0 337.000000 337.000000"
 preserveAspectRatio="xMidYMid meet">
<metadata>
Created by potrace 1.11, written by Peter Selinger 2001-2013
</metadata>
<g transform="translate(0.000000,337.000000) scale(0.100000,-0.100000)"
fill="#000000" stroke="none">
<path d="M1353 3338 c-12 -6 -25 -24 -29 -42 -8 -37 -11 -296 -4 -296 3 0 7
-37 8 -82 6 -199 12 -325 16 -353 12 -80 30 -161 38 -170 4 -5 8 -15 8 -23 0
-15 59 -144 70 -152 10 -8 68 -94 67 -100 -1 -3 13 -25 30 -50 52 -76 68 -168
68 -390 0 -114 -6 -223 -14 -268 -1 -2 -12 8 -24 22 -13 14 -27 23 -30 19 -4
-3 -7 -2 -7 4 0 13 -60 56 -170 126 -92 57 -120 83 -190 172 -30 39 -59 75
-65 82 -5 7 -16 19 -22 27 -7 8 -13 17 -13 20 0 2 -16 27 -35 56 -19 29 -42
68 -51 89 -9 20 -27 59 -40 86 -33 73 -43 102 -37 109 16 16 24 563 9 626 -4
19 -9 51 -11 70 -1 19 -5 44 -8 55 -9 29 -17 107 -22 209 -3 78 -7 90 -27 104
-33 23 -59 22 -84 -5 -20 -21 -21 -32 -19 -123 2 -55 6 -112 9 -127 3 -15 8
-48 11 -73 8 -57 13 -89 21 -120 3 -14 8 -106 10 -205 4 -152 3 -177 -9 -160
-23 35 -137 283 -137 299 0 8 -4 18 -10 21 -5 3 -10 14 -10 24 0 27 -38 61
-68 61 -38 0 -63 -32 -58 -73 5 -34 42 -139 69 -192 9 -16 29 -60 46 -97 17
-38 45 -98 63 -135 17 -38 32 -70 33 -73 1 -5 14 -32 62 -140 9 -19 17 -37 18
-40 19 -55 122 -260 141 -282 17 -17 10 -22 -46 -33 -12 -2 -29 -7 -39 -10 -9
-3 -51 -7 -94 -9 l-77 -5 -83 82 c-75 74 -85 89 -106 153 -12 39 -24 105 -27
145 -2 41 -6 83 -8 94 -3 11 -5 23 -5 26 -1 3 -17 10 -36 16 -30 10 -37 8 -60
-13 -25 -23 -26 -27 -21 -116 6 -134 26 -211 72 -280 13 -21 20 -38 16 -38 -5
0 -38 9 -73 21 -81 26 -160 71 -211 119 -59 57 -84 66 -116 41 -25 -19 -36
-67 -19 -87 27 -32 88 -94 93 -94 3 0 24 -13 47 -28 36 -24 120 -65 137 -68 3
0 32 -9 65 -19 33 -10 65 -20 70 -21 31 -9 103 -26 120 -29 11 -2 52 -11 90
-20 79 -18 190 -14 290 12 118 30 117 30 160 -24 74 -92 150 -158 235 -204 25
-13 54 -32 64 -42 11 -9 23 -17 26 -17 7 0 14 -6 98 -83 27 -24 45 -51 52 -79
12 -43 16 -254 7 -304 -4 -16 -9 -54 -13 -84 -6 -58 -8 -80 -19 -275 -11 -205
-21 -253 -78 -350 -16 -27 -35 -66 -42 -86 -12 -33 -11 -38 11 -64 24 -28 69
-41 80 -24 3 5 10 7 15 4 5 -4 9 -2 9 4 0 6 21 22 48 37 26 15 55 37 64 48 16
20 17 20 54 2 21 -10 67 -40 101 -68 35 -27 63 -46 63 -42 0 4 5 3 11 -3 9 -9
17 -9 32 0 54 31 62 67 23 112 -14 16 -29 52 -36 89 -7 33 -16 75 -20 91 -5
17 -11 46 -14 65 -2 19 -7 46 -10 60 -4 14 -9 43 -11 65 -3 22 -7 51 -10 65
-3 14 -8 57 -10 95 -3 39 -8 91 -10 117 -3 26 -6 143 -8 260 -1 162 1 212 11
215 6 3 12 11 12 19 0 14 48 140 76 202 9 19 24 42 35 53 10 10 16 19 13 19
-3 0 1 6 8 13 7 8 29 31 49 53 20 21 64 66 97 98 l62 60 22 -21 c58 -52 144
-72 381 -88 38 -2 74 -8 80 -13 13 -9 14 -9 67 1 19 4 108 9 196 11 145 3 166
5 205 25 61 32 150 97 142 105 -3 3 -2 6 4 6 17 0 88 99 88 123 2 61 -66 88
-108 43 -148 -158 -165 -168 -299 -172 -55 -2 -98 0 -96 4 2 4 19 39 37 77 18
39 48 102 67 142 32 67 102 255 109 295 2 9 8 25 13 35 6 10 9 20 9 23 -1 3 3
23 10 45 32 110 32 111 9 139 -32 41 -101 30 -110 -16 -2 -7 -6 -20 -9 -28 -3
-8 -11 -35 -17 -60 -21 -88 -74 -245 -84 -252 -6 -4 -7 -8 -2 -8 5 0 3 -7 -4
-15 -7 -8 -10 -15 -7 -15 3 0 -9 -28 -26 -62 -17 -35 -31 -65 -32 -68 -13 -49
-81 -174 -112 -205 -35 -35 -48 -36 -233 -20 -41 3 -81 7 -87 7 -7 1 -13 5
-13 9 0 5 -6 6 -13 3 -18 -6 -56 9 -84 34 -23 19 -31 42 -15 42 15 0 123 211
176 343 8 20 20 37 27 37 13 0 110 59 120 73 3 5 9 8 13 7 13 -2 163 108 203
151 110 116 130 152 111 194 -6 14 -17 25 -25 25 -7 0 -13 4 -13 8 0 4 -9 8
-20 8 -11 0 -38 -22 -62 -50 -77 -88 -135 -143 -197 -185 -33 -23 -62 -41 -65
-41 -5 0 27 98 51 160 3 8 7 21 9 28 1 8 6 21 10 30 7 16 9 25 17 55 2 6 9 32
16 57 20 68 22 87 37 325 5 88 4 103 -12 123 -37 44 -113 26 -114 -27 -3 -69
-20 -321 -24 -342 -2 -8 -6 -21 -9 -29 -5 -12 -21 -68 -33 -112 -1 -5 -2 -9
-4 -10 -1 -2 -3 -10 -5 -18 -3 -8 -18 -55 -36 -105 -17 -49 -32 -94 -33 -100
-2 -5 -13 -32 -25 -60 -13 -27 -34 -82 -47 -122 -13 -39 -42 -108 -64 -152
-22 -44 -40 -82 -40 -85 0 -7 -61 -109 -70 -116 -3 -3 -17 -23 -32 -45 -15
-22 -74 -88 -130 -146 -57 -57 -118 -124 -137 -147 -41 -51 -93 -147 -84 -156
3 -3 1 -6 -5 -6 -9 0 -11 16 -7 53 7 64 7 253 1 287 -3 14 -8 52 -11 84 -3 33
-8 63 -11 67 -2 4 15 17 38 27 50 23 135 104 180 173 17 27 35 49 40 49 4 0 8
5 8 12 0 7 17 48 39 93 110 229 125 294 124 560 0 172 -10 294 -29 357 -11 36
-77 45 -102 13 -20 -25 -20 -34 -7 -170 14 -149 9 -374 -11 -460 -11 -51 -41
-137 -64 -183 -15 -32 -35 -75 -45 -97 -40 -87 -166 -235 -200 -235 -15 0 -55
51 -55 69 0 6 -4 11 -10 11 -5 0 -10 4 -10 9 0 4 -22 41 -49 82 -69 106 -114
239 -80 239 10 0 124 110 124 120 1 3 15 26 33 52 18 26 32 50 32 53 0 4 8 19
18 33 16 23 67 149 71 175 0 4 1 8 2 10 4 12 12 104 10 125 -2 21 -40 52 -64
52 -34 0 -63 -38 -66 -85 -5 -81 -73 -252 -120 -302 -12 -12 -21 -26 -21 -31
0 -9 -49 -58 -51 -51 -1 2 -3 60 -5 129 -1 69 -5 150 -8 180 -2 30 -5 117 -6
192 -2 113 -5 139 -18 151 -25 21 -54 27 -79 15z"/>
</g>
</svg>
